<svg xmlns="http://www.w3.org/2000/svg" viewBox="0 0 32 32" fill="none">
  <rect width="32" height="32" rx="8" fill="#171717" />
  <rect x="1" y="1" width="30" height="30" rx="7" stroke="#f59e0b" stroke-opacity="0.3" stroke-width="1" fill="none" />
  <path d="M9 11.5h8a2 2 0 0 1 2 2v5a2 2 0 0 1-2 2H9a2 2 0 0 1-2-2v-5a2 2 0 0 1 2-2Z" stroke="#f59e0b" stroke-width="1.5" stroke-linecap="round" stroke-linejoin="round"/>
  <path d="M19 14l4-3.2a.5.5 0 0 1 .8.4v9.6a.5.5 0 0 1-.8.4L19 18" stroke="#f59e0b" stroke-width="1.5" stroke-linecap="round" stroke-linejoin="round"/>
</svg>
